#!OML:ASF H:\Swim 2\Project 1\Capture day 1\Session 1\male.ASF
:FULLY-SPECIFIED
:DEGREES
1391
root -0.175395 14.2522 6.84756 100.385 3.25303 -0.797346
lowerback -17.1778 1.38608 -5.98769
upperback -8.46051 2.85169 2.75709
thorax 0.0879739 1.76817 6.8026
lowerneck -14.6028 -3.93901 -3.41457
upperneck -4.22495 -4.802 3.29383
head 1.30565 -2.31881 1.36812
rclavicle 1.11319e-014 2.78299e-015
rhumerus 52.41 -9.34735 -22.5423
rradius 29.5004
rwrist -0.665053
rhand -31.6106 -8.56126
rfingers 7.12502
rthumb -4.87278 -38.4852
lclavicle 1.11319e-014 2.78299e-015
lhumerus -297.905 1.9225 -314.646
lradius 25.028
lwrist 24.5991
lhand -45.8414 -13.476
lfingers 7.12502
lthumb -18.5931 15.6554
rfemur -46.2659 -2.9189 20.9825
rtibia 52.3202
rfoot 10.1704 -0.54937
rtoes 12.0683
lfemur -45.9764 -6.42816 -19.9871
ltibia 49.4196
lfoot -1.23903 3.38825
ltoes 6.24736
1392
root -0.176946 14.257 6.85607 99.672 3.2618 -0.889192
lowerback -16.7459 1.39793 -5.86277
upperback -8.33891 2.82091 2.74563
thorax 0.00819673 1.74396 6.69434
lowerneck -14.8925 -3.91631 -3.45469
upperneck -4.12137 -4.75788 3.41314
head 1.39417 -2.2901 1.41209
rclavicle 0 -7.95139e-016
rhumerus 51.4375 -8.59972 -23.6026
rradius 30.2665
rwrist -4.68942
rhand -31.0804 -9.51084
rfingers 7.12502
rthumb -4.36082 -39.4459
lclavicle 0 -7.95139e-016
lhumerus -300.253 0.325913 -316.781
lradius 28.3266
lwrist 31.8679
lhand -46.5689 -13.0795
lfingers 7.12502
lthumb -19.2928 15.9834
rfemur -45.913 -3.14391 20.9949
rtibia 54.6664
rfoot 11.0914 -0.349906
rtoes 12.7294
lfemur -45.5429 -5.7608 -20.5259
ltibia 51.5899
lfoot -0.962147 3.18381
ltoes 6.48164
1393
root -0.177618 14.2617 6.86609 98.9457 3.28964 -0.970454
lowerback -16.2841 1.41541 -5.74113
upperback -8.24042 2.79833 2.74674
thorax -0.115628 1.72714 6.60094
lowerneck -15.1921 -3.89338 -3.46879
upperneck -4.01196 -4.71742 3.51278
head 1.48524 -2.26369 1.44511
rclavicle 1.27222e-014 -1.51076e-014
rhumerus 50.3323 -7.71051 -24.3682
rradius 31.3198
rwrist -9.21484
rhand -30.5603 -10.01
rfingers 7.12502
rthumb -3.8585 -39.9548
lclavicle 1.27222e-014 -1.51076e-014
lhumerus -302.482 -1.30428 -318.456
lradius 31.7982
lwrist 38.7822
lhand -47.0393 -13.3795
lfingers 7.12502
lthumb -19.7451 15.6377
rfemur -45.5628 -3.37996 21.0206
rtibia 57.0087
rfoot 12.0327 -0.11561
rtoes 13.3681
lfemur -45.1206 -5.08604 -21.022
ltibia 53.8741
lfoot -0.666256 2.95271
ltoes 6.67207
1394
root -0.177161 14.2666 6.87742 98.2188 3.33578 -1.02788
lowerback -15.7927 1.43949 -5.63622
upperback -8.1762 2.78761 2.7652
thorax -0.296958 1.72101 6.53538
lowerneck -15.4624 -3.88793 -3.47071
upperneck -3.90517 -4.70359 3.59985
head 1.57073 -2.25129 1.47087
rclavicle -4.6118e-014 -1.27222e-014
rhumerus 49.0935 -6.70455 -24.9751
rradius 32.6314
rwrist -13.6727
rhand -30.064 -10.0788
rfingers 7.12502
rthumb -3.37922 -40.0318
lclavicle -4.6118e-014 -1.27222e-014
lhumerus -304.606 -2.96402 -319.688
lradius 35.3898
lwrist 45.1616
lhand -47.0726 -14.1221
lfingers 7.12502
lthumb -19.777 14.8917
rfemur -45.2247 -3.63424 21.058
rtibia 59.3354
rfoot 12.9993 0.147297
rtoes 14.0205
lfemur -44.7241 -4.41613 -21.4709
ltibia 56.2436
lfoot -0.331592 2.65561
ltoes 6.88734
1395
root -0.175644 14.2718 6.88993 97.5079 3.40234 -1.05957
lowerback -15.281 1.46745 -5.54265
upperback -8.1539 2.78481 2.79901
thorax -0.537871 1.7235 6.49197
lowerneck -15.6813 -3.89379 -3.45446
upperneck -3.80329 -4.70947 3.65768
head 1.64498 -2.25019 1.48338
rclavicle 1.90833e-014 7.95139e-015
rhumerus 47.7101 -5.54399 -25.3921
rradius 34.171
rwrist -17.6482
rhand -29.6272 -9.7126
rfingers 7.12502
rthumb -2.9574 -39.6718
lclavicle 1.90833e-014 7.95139e-015
lhumerus -306.656 -4.65524 -320.552
lradius 39.0508
lwrist 50.8076
lhand -46.5949 -14.9166
lfingers 7.12502
lthumb -19.3178 14.1439
rfemur -44.9142 -3.90459 21.1094
rtibia 61.6364
rfoot 13.9274 0.405307
rtoes 14.4491
lfemur -44.3717 -3.75093 -21.869
ltibia 58.6708
lfoot 0.0111385 2.30304
ltoes 6.87981
1396
root -0.173355 14.2774 6.90337 96.8181 3.47665 -1.07014
lowerback -14.7531 1.49454 -5.46496
upperback -8.16653 2.78411 2.84125
thorax -0.82774 1.73077 6.46544
lowerneck -15.8686 -3.91084 -3.43522
upperneck -3.69827 -4.73195 3.69877
head 1.71484 -2.25816 1.48917
rclavicle 1.59028e-015 -5.96354e-015
rhumerus 46.209 -4.21123 -25.6503
rradius 35.9201
rwrist -20.8832
rhand -29.3042 -9.01836
rfingers 7.12502
rthumb -2.64548 -38.9817
lclavicle 1.59028e-015 -5.96354e-015
lhumerus -308.653 -6.39353 -321.172
lradius 42.7333
lwrist 55.5265
lhand -45.6447 -15.3878
lfingers 7.12502
lthumb -18.4039 13.7616
rfemur -44.638 -4.18734 21.1604
rtibia 63.9051
rfoot 14.8202 0.636597
rtoes 14.7203
lfemur -44.06 -3.09382 -22.2271
ltibia 61.1241
lfoot 0.315653 1.94186
ltoes 6.48919
1397
root -0.170682 14.2835 6.91749 96.1592 3.54948 -1.0656
lowerback -14.2207 1.5166 -5.40243
upperback -8.20446 2.77997 2.8826
thorax -1.14846 1.73861 6.44566
lowerneck -16.0469 -3.93303 -3.40046
upperneck -3.59838 -4.76416 3.72141
head 1.78077 -2.27177 1.48561
rclavicle -4.77083e-015 -5.1684e-015
rhumerus 44.6238 -2.70136 -25.781
rradius 37.8679
rwrist -23.3079
rhand -29.1155 -8.18178
rfingers 7.12502
rthumb -2.46326 -38.1473
lclavicle -4.77083e-015 -5.1684e-015
lhumerus -310.599 -8.20295 -321.674
lradius 46.3916
lwrist 59.1437
lhand -44.3801 -15.3539
lfingers 7.12502
lthumb -17.1871 13.906
rfemur -44.4081 -4.47869 21.2015
rtibia 66.1343
rfoot 15.6804 0.819783
rtoes 14.8728
lfemur -43.7909 -2.44817 -22.5533
ltibia 63.5742
lfoot 0.574002 1.60842
ltoes 5.73902
1398
root -0.168049 14.29 6.93213 95.5317 3.61739 -1.05395
lowerback -13.69 1.52981 -5.34689
upperback -8.2516 2.76584 2.91595
thorax -1.47766 1.74168 6.42051
lowerneck -16.227 -3.94535 -3.308
upperneck -3.52774 -4.79236 3.70489
head 1.83375 -2.28518 1.45933
rclavicle -5.64548e-014 -2.82274e-014
rhumerus 42.9966 -1.03095 -25.8408
rradius 40.0105
rwrist -24.9982
rhand -29.0649 -7.29724
rfingers 7.12502
rthumb -2.41439 -37.2633
lclavicle -5.64548e-014 -2.82274e-014
lhumerus -312.484 -10.1007 -322.165
lradius 49.9833
lwrist 61.5162
lhand -43.009 -14.8656
lfingers 7.12502
lthumb -15.8671 14.5043
rfemur -44.2327 -4.77266 21.2302
rtibia 68.3196
rfoot 16.509 0.938436
rtoes 14.9063
lfemur -43.5524 -1.81362 -22.8491
ltibia 65.9873
lfoot 0.779973 1.32317
ltoes 4.67153
1399
root -0.165875 14.2973 6.94747 94.9378 3.6772 -1.04158
lowerback -13.1693 1.53859 -5.30508
upperback -8.30197 2.74865 2.93843
thorax -1.80573 1.7433 6.39232
lowerneck -16.4064 -3.9492 -3.13111
upperneck -3.50976 -4.82264 3.62154
head 1.86358 -2.30284 1.39624
rclavicle 1.51076e-014 -8.74653e-015
rhumerus 41.3446 0.747854 -25.8666
rradius 42.376
rwrist -26.1723
rhand -29.0328 -6.68335
rfingers 7.12502
rthumb -2.38339 -36.6498
lclavicle 1.51076e-014 -8.74653e-015
lhumerus -314.284 -12.1174 -322.683
lradius 53.4626
lwrist 62.5864
lhand -41.7645 -14.2397
lfingers 7.12502
lthumb -14.6682 15.2215
rfemur -44.1183 -5.06679 21.2456
rtibia 70.4524
rfoot 17.3414 1.00972
rtoes 14.9785
lfemur -43.3388 -1.19252 -23.1172
ltibia 68.3368
lfoot 0.935921 1.08552
ltoes 3.3908
1400
root -0.16451 14.3055 6.96344 94.3765 3.72537 -1.0313
lowerback -12.663 1.54423 -5.28137
upperback -8.34388 2.73029 2.94866
thorax -2.11823 1.74373 6.36284
lowerneck -16.6064 -3.94352 -2.87755
upperneck -3.53733 -4.85217 3.47066
head 1.87649 -2.32321 1.29758
rclavicle 4.77083e-015 3.97569e-015
rhumerus 39.68 2.60211 -25.8788
rradius 44.9384
rwrist -27.0882
rhand -29.0157 -6.13998
rfingers 7.12502
rthumb -2.36692 -36.1066
lclavicle 4.77083e-015 3.97569e-015
lhumerus -315.983 -14.2286 -323.204
lradius 56.7839
lwrist 62.364
lhand -40.7464 -13.6894
lfingers 7.12502
lthumb -13.6872 15.8406
rfemur -44.0677 -5.36164 21.2479
rtibia 72.5246
rfoot 18.2056 1.08283
rtoes 15.0866
lfemur -43.1425 -0.587413 -23.3609
ltibia 70.5979
lfoot 1.07865 0.869583
ltoes 2.21886
1401
root -0.164014 14.3148 6.97969 93.8585 3.75612 -1.01664
lowerback -12.1809 1.55225 -5.29558
upperback -8.38551 2.72055 2.95021
thorax -2.42168 1.7498 6.34833
lowerneck -16.8029 -3.94255 -2.57187
upperneck -3.61513 -4.89672 3.25536
head 1.868 -2.35437 1.16825
rclavicle 4.69132e-014 6.36111e-015
rhumerus 37.986 4.4903 -25.8854
rradius 47.6768
rwrist -27.9231
rhand -28.9194 -5.67063
rfingers 7.12502
rthumb -2.27388 -35.6383
lclavicle 4.69132e-014 6.36111e-015
lhumerus -317.583 -16.426 -323.643
lradius 59.8917
lwrist 60.9545
lhand -39.9724 -13.3519
lfingers 7.12502
lthumb -12.9412 16.2268
rfemur -44.0914 -5.66656 21.2353
rtibia 74.5233
rfoot 19.133 1.15137
rtoes 15.2341
lfemur -42.9725 -0.015199 -23.5873
ltibia 72.7534
lfoot 1.22326 0.656205
ltoes 1.26212
1402
root -0.164399 14.3253 6.99568 93.3863 3.76462 -0.993582
lowerback -11.7213 1.56712 -5.35977
upperback -8.4338 2.72616 2.94544
thorax -2.7263 1.76645 6.35822
lowerneck -16.9613 -3.96231 -2.28397
upperneck -3.74978 -4.96666 3.02269
head 1.83397 -2.39979 1.03595
rclavicle 2.94201e-014 2.18663e-014
rhumerus 36.2535 6.38349 -25.9063
rradius 50.5401
rwrist -28.7824
rhand -28.6476 -5.26091
rfingers 7.12502
rthumb -2.01135 -35.2312
lclavicle 2.94201e-014 2.18663e-014
lhumerus -319.102 -18.675 -323.917
lradius 62.7402
lwrist 58.5502
lhand -39.3922 -13.3041
lfingers 7.12502
lthumb -12.3818 16.3093
rfemur -44.1934 -5.98615 21.205
rtibia 76.4358
rfoot 20.1101 1.25943
rtoes 15.3465
lfemur -42.8301 0.517497 -23.8017
ltibia 74.7892
lfoot 1.38884 0.417368
ltoes 0.716461
1403
root -0.165464 14.337 7.01141 92.9665 3.75319 -0.957555
lowerback -11.2875 1.59058 -5.47282
upperback -8.49591 2.74887 2.93752
thorax -3.03842 1.79539 6.39502
lowerneck -17.086 -4.00967 -2.05579
upperneck -3.91059 -5.06391 2.79612
head 1.78768 -2.45891 0.915379
rclavicle -1.82882e-014 -1.07344e-014
rhumerus 34.4953 8.25153 -25.9399
rradius 53.4753
rwrist -29.6391
rhand -28.1267 -5.05864
rfingers 7.12502
rthumb -1.5083 -35.0331
lclavicle -1.82882e-014 -1.07344e-014
lhumerus -320.572 -20.943 -323.978
lradius 65.3021
lwrist 55.4211
lhand -38.9401 -13.5204
lfingers 7.12502
lthumb -11.9459 16.1187
rfemur -44.3712 -6.32006 21.1597
rtibia 78.2393
rfoot 21.1223 1.42021
rtoes 15.3272
lfemur -42.7259 1.00449 -24.0057
ltibia 76.699
lfoot 1.55662 0.158919
ltoes 0.424147
1404
root -0.167032 14.3497 7.02613 92.5993 3.72313 -0.911061
lowerback -10.8819 1.62899 -5.63918
upperback -8.57434 2.79742 2.93053
thorax -3.36165 1.84206 6.46586
lowerneck -17.1667 -4.09161 -1.91429
upperneck -4.08711 -5.19298 2.59164
head 1.73234 -2.53304 0.8161
rclavicle 2.54444e-014 1.39149e-014
rhumerus 32.6976 10.0782 -25.9975
rradius 56.4183
rwrist -30.4916
rhand -27.3917 -4.9759
rfingers 7.12502
rthumb -0.798392 -34.9542
lclavicle 2.54444e-014 1.39149e-014
lhumerus -322.015 -23.2201 -323.818
lradius 67.564
lwrist 51.8514
lhand -38.6268 -13.9987
lfingers 7.12502
lthumb -11.6437 15.6577
rfemur -44.615 -6.65426 21.0984
rtibia 79.9101
rfoot 22.1647 1.64054
rtoes 15.1568
lfemur -42.6598 1.44133 -24.1969
ltibia 78.4757
lfoot 1.71053 -0.107088
ltoes 0.338042
1405
root -0.168835 14.363 7.03984 92.2872 3.67528 -0.858184
lowerback -10.5121 1.68736 -5.85989
upperback -8.66678 2.87865 2.92615
thorax -3.6911 1.91028 6.57334
lowerneck -17.2066 -4.21173 -1.86221
upperneck -4.2806 -5.35781 2.40772
head 1.66816 -2.62397 0.737716
rclavicle 2.38542e-014 4.77083e-015
rhumerus 30.8568 11.8468 -26.0871
rradius 59.3072
rwrist -31.2864
rhand -26.5296 -4.92908
rfingers 7.12502
rthumb 0.0342126 -34.9088
lclavicle 2.38542e-014 4.77083e-015
lhumerus -323.437 -25.4911 -323.456
lradius 69.5373
lwrist 48.1525
lhand -38.4729 -14.6534
lfingers 7.12502
lthumb -11.4954 15.0114
rfemur -44.9147 -6.97365 21.0191
rtibia 81.4176
rfoot 23.2628 1.92241
rtoes 14.8549
lfemur -42.6355 1.82847 -24.3775
ltibia 80.1151
lfoot 1.85179 -0.375951
ltoes 0.383649
